<?xml version="1.0" standalone="no"?>
<!DOCTYPE svg PUBLIC "-//W3C//DTD SVG 20010904//EN"
 "http://www.w3.org/TR/2001/REC-SVG-20010904/DTD/svg10.dtd">
<svg version="1.0" xmlns="http://www.w3.org/2000/svg"
 width="148.000000pt" height="148.000000pt" viewBox="0 0 148.000000 148.000000"
 preserveAspectRatio="xMidYMid meet">

<g transform="translate(0.000000,148.000000) scale(0.100000,-0.100000)"
fill="#000000" stroke="#000000" stroke-width="30">
<path d="M277 1473 c-4 -3 -7 -46 -7 -94 l0 -88 -50 -66 -50 -66 0 -99 0 -99
-58 -3 -57 -3 0 -65 0 -65 33 -3 c18 -2 35 -9 37 -15 3 -7 25 -169 50 -362 25
-192 47 -360 50 -372 l5 -23 295 0 294 0 48 -26 c53 -28 108 -29 196 -4 40 12
54 12 95 0 125 -36 213 -15 251 59 17 33 21 59 21 143 0 119 -14 159 -69 195
-42 29 -131 31 -201 6 -40 -14 -54 -15 -86 -5 -68 21 -66 11 -44 193 27 220
23 209 65 209 l35 0 0 70 0 70 -60 0 -60 0 0 43 c0 39 -5 48 -60 102 -54 53
-60 64 -60 100 0 38 13 65 32 65 4 0 21 -27 38 -60 27 -54 33 -59 50 -50 22
12 19 23 -20 98 -31 58 -23 72 42 72 75 0 80 6 76 81 l-3 64 -140 3 c-201 4
-270 -22 -320 -121 -41 -83 -32 -127 26 -127 15 0 19 -7 19 -33 0 -25 -9 -42
-35 -67 -33 -32 -35 -37 -35 -102 0 -66 -1 -68 -25 -68 -25 0 -25 0 -25 99 l0
100 -50 65 -50 65 0 80 c0 114 3 111 -99 111 -48 0 -91 -3 -94 -7z m143 -103
l0 -60 -50 0 -50 0 0 60 0 60 50 0 50 0 0 -60z m540 27 c0 -27 -8 -39 -54 -75
l-54 -42 -92 0 -92 0 6 28 c19 79 92 122 208 122 l78 0 0 -33z m100 8 c0 -20
-5 -25 -25 -25 -20 0 -25 5 -25 25 0 20 5 25 25 25 20 0 25 -5 25 -25z m-597
-183 l29 -37 -61 -3 c-34 -2 -89 -2 -123 0 l-62 3 33 38 c32 35 36 37 95 37
59 -1 62 -2 89 -38z m377 -17 c0 -23 -3 -25 -50 -25 -47 0 -50 2 -50 25 0 23
3 25 50 25 47 0 50 -2 50 -25z m-322 -157 l3 -88 -151 0 -150 0 0 83 c0 46 3
87 7 91 4 3 70 5 147 4 l141 -3 3 -87z m384 35 c47 -47 58 -63 58 -90 l0 -34
-147 3 -148 3 -3 53 c-3 49 0 56 31 87 32 32 40 35 93 35 58 0 59 -1 116 -57z
m-604 -195 c-3 -22 -8 -23 -100 -26 l-98 -3 0 26 0 25 101 0 c98 0 100 0 97
-22z m394 -70 l3 -93 85 -45 c63 -34 85 -50 85 -65 0 -30 -36 -30 -95 0 -29
15 -58 24 -66 21 -11 -4 -14 -35 -14 -145 0 -114 -3 -143 -16 -155 -8 -9 -20
-16 -25 -16 -5 0 -9 49 -9 110 l0 110 -25 0 -25 0 0 -110 0 -110 -25 0 -25 0
0 110 0 110 -25 0 -25 0 0 -110 0 -110 -25 0 -25 0 0 110 c0 103 -1 110 -20
110 -18 0 -20 -8 -22 -107 -2 -87 -6 -108 -18 -108 -34 0 -40 43 -40 318 l0
267 175 0 174 0 3 -92z m396 70 c-3 -23 -5 -23 -175 -26 l-173 -2 0 25 0 25
176 0 175 0 -3 -22z m-788 -323 c3 -137 7 -251 8 -253 1 -1 17 -11 35 -22 28
-17 50 -20 179 -20 l148 0 32 29 33 29 3 121 c4 128 6 132 52 106 54 -31 113
-9 125 45 10 46 -15 75 -100 117 -71 35 -75 39 -75 70 l0 33 129 0 c72 0 132
-4 135 -8 2 -4 -6 -89 -19 -187 -14 -99 -25 -181 -25 -182 0 -2 -15 -3 -34 -3
-43 0 -96 -36 -119 -80 -14 -29 -17 -55 -15 -148 l3 -112 -265 2 -265 3 -12
100 c-6 55 -26 204 -42 332 -41 310 -44 285 27 281 l57 -3 5 -250z m720 -180
c55 -20 120 -19 185 1 68 22 116 13 149 -27 36 -43 35 -92 -3 -130 -25 -25
-37 -29 -81 -29 -29 0 -76 7 -106 16 -49 14 -59 14 -108 0 -30 -9 -77 -16
-106 -16 -44 0 -56 4 -81 29 -36 36 -39 86 -8 125 37 47 86 57 159 31z m-141
-221 c37 -18 119 -16 193 6 42 13 53 12 95 -3 59 -21 138 -22 177 -2 37 20 36
20 36 -21 0 -26 -8 -43 -30 -66 -28 -27 -35 -29 -88 -26 -31 2 -78 11 -105 18
-40 12 -54 12 -95 0 -26 -7 -73 -16 -104 -18 -53 -3 -60 -1 -88 26 -22 23 -30
40 -30 66 0 20 2 36 3 36 2 0 18 -7 36 -16z"/>
<path d="M1010 320 c0 -15 7 -20 25 -20 18 0 25 5 25 20 0 15 -7 20 -25 20
-18 0 -25 -5 -25 -20z"/>
<path d="M1260 320 c0 -15 7 -20 25 -20 18 0 25 5 25 20 0 15 -7 20 -25 20
-18 0 -25 -5 -25 -20z"/>
<path d="M914 305 c-8 -20 4 -35 27 -35 14 0 19 7 19 25 0 18 -5 25 -20 25
-11 0 -23 -7 -26 -15z"/>
<path d="M1160 295 c0 -20 5 -25 25 -25 20 0 25 5 25 25 0 20 -5 25 -25 25
-20 0 -25 -5 -25 -25z"/>
</g>
</svg>
