<?xml version="1.0" standalone="no"?>
<!DOCTYPE svg PUBLIC "-//W3C//DTD SVG 20010904//EN"
 "http://www.w3.org/TR/2001/REC-SVG-20010904/DTD/svg10.dtd">
<svg version="1.0" xmlns="http://www.w3.org/2000/svg"
 width="171.000000pt" height="148.000000pt" viewBox="0 0 171.000000 148.000000"
 preserveAspectRatio="xMidYMid meet">

<g transform="translate(0.000000,148.000000) scale(0.100000,-0.100000)"
fill="#000000" stroke="#000000" stroke-width="30">
<path d="M1047 1419 c-9 -6 -42 -59 -72 -120 -30 -60 -61 -109 -68 -109 -6 1
-23 7 -37 15 -60 34 -88 13 -150 -117 l-41 -87 -174 -3 c-212 -4 -215 -5 -215
-108 l0 -67 -42 -6 c-48 -6 -84 -30 -116 -78 -20 -28 -23 -44 -20 -94 4 -66
24 -102 71 -130 l27 -16 0 -130 0 -131 29 -29 c24 -24 38 -29 75 -29 l46 0 0
-50 0 -50 -105 0 c-87 0 -105 -3 -105 -15 0 -13 85 -15 705 -15 620 0 705 2
705 15 0 12 -18 15 -105 15 l-105 0 0 50 0 50 44 0 c33 0 52 6 73 24 28 24 28
26 33 159 l5 134 33 28 c45 37 62 75 62 133 0 81 -59 148 -138 159 l-42 6 0
67 c0 94 -13 104 -135 108 -93 4 -94 4 -104 33 -6 19 -22 35 -43 43 -18 8 -36
17 -40 21 -4 4 15 52 42 106 59 117 64 162 24 203 -29 28 -83 35 -117 15z m61
-504 c2 -2 -8 -25 -21 -52 -34 -67 -39 -97 -27 -144 6 -23 9 -43 7 -45 -7 -7
-117 49 -117 58 0 5 16 40 35 78 37 74 43 100 22 100 -7 0 -30 -36 -50 -80
-20 -44 -42 -80 -48 -80 -5 0 -23 7 -40 15 -28 15 -29 17 -14 38 17 24 20 67
5 67 -6 0 -18 -16 -27 -35 -19 -40 -23 -41 -64 -20 l-29 16 25 49 c14 27 25
56 25 65 0 31 -21 13 -47 -40 -15 -30 -32 -55 -38 -55 -5 1 -36 13 -68 29
l-59 28 47 17 c46 18 96 72 111 120 15 49 19 49 197 -41 95 -47 173 -87 175
-88z m-488 46 c0 -5 -12 -11 -27 -14 -38 -8 -68 -31 -59 -46 4 -6 132 -72 283
-146 300 -147 315 -151 287 -73 -24 68 -18 110 28 203 l42 85 93 0 c115 0 123
-6 123 -96 0 -36 -4 -64 -10 -64 -5 0 -27 -16 -49 -35 -47 -42 -61 -90 -61
-204 l0 -81 -415 0 -415 0 0 89 c0 48 -5 103 -11 122 -13 38 -63 96 -91 105
-15 4 -18 16 -18 69 0 93 3 95 166 95 74 0 134 -4 134 -9z m-277 -196 c50 -35
57 -62 57 -210 0 -111 3 -145 16 -163 l15 -22 424 0 424 0 15 22 c13 18 16 52
16 163 0 119 3 145 19 171 37 60 127 79 184 39 82 -58 72 -189 -18 -232 l-34
-16 -3 -146 -3 -146 -600 0 -600 0 -3 146 -3 146 -34 16 c-109 52 -95 219 20
250 28 7 85 -2 108 -18z m860 -630 c15 -25 27 -48 27 -50 0 -3 -169 -5 -375
-5 -206 0 -375 3 -375 6 0 4 12 26 28 50 l27 44 320 0 320 0 28 -45z"/>
<path d="M650 700 c-41 -41 -10 -110 49 -110 30 0 71 38 71 65 0 7 -9 24 -21
39 -25 32 -70 35 -99 6z"/>
<path d="M220 700 c-41 -41 -10 -110 48 -110 36 0 62 28 62 67 0 57 -69 84
-110 43z"/>
<path d="M1391 694 c-24 -31 -25 -35 -9 -69 22 -48 97 -46 118 4 12 30 2 66
-24 83 -24 17 -65 8 -85 -18z"/>
<path d="M516 1177 c-21 -16 -24 -60 -6 -82 19 -23 66 -19 84 7 21 30 20 44
-4 68 -23 23 -49 26 -74 7z"/>
<path d="M1242 1174 c-40 -28 -19 -94 29 -94 55 0 80 58 41 93 -23 21 -41 21
-70 1z"/>
</g>
</svg>
